<svg xmlns="http://www.w3.org/2000/svg" viewBox="0 0 71 71" fill="none"><path d="M58.2645 20.0842L55.7964 22.5523C58.5928 26.9155 59.9021 32.0665 59.5285 37.2355C59.155 42.4045 57.1186 47.3137 53.7239 51.2295L51.2862 48.7952L50.4511 47.9804L48.0134 45.5461C46.5128 47.4016 44.6182 48.9001 42.4668 49.9328C40.3154 50.9655 37.9613 51.5066 35.5749 51.5169C32.3006 51.5137 29.1059 50.5075 26.4208 48.6336C23.7357 46.7597 21.6892 44.1082 20.5567 41.0359C20.1455 39.9279 19.8619 38.7766 19.7115 37.6043H8.18921C8.27228 38.7572 8.43039 39.9035 8.66254 41.0359C9.47893 45.0161 11.1684 48.7655 13.6091 52.0138C16.0498 55.2621 19.1808 57.9282 22.7766 59.8201C26.3723 61.7119 30.343 62.7823 34.4024 62.9539C38.4618 63.1256 42.5087 62.3943 46.2513 60.8128C49.9939 59.2312 53.3389 56.8389 56.0451 53.8083C58.7513 50.7777 60.7513 47.1843 61.9008 43.2872C63.0503 39.3902 63.3207 35.2866 62.6924 31.2724C62.0642 27.2583 60.553 23.4335 58.2679 20.074L58.2645 20.0842ZM35.5749 59.5433C30.1636 59.537 24.9123 57.7067 20.6695 54.3479C16.4267 50.9891 13.4401 46.2981 12.1923 41.0325H16.9459C17.8597 44.1233 19.5283 46.938 21.8014 49.223C24.0745 53.5079 26.8806 53.1911 29.9666 54.121C33.0525 55.0508 36.3214 55.1979 39.4785 54.5491C42.6355 53.9003 45.5814 52.476 48.0506 50.4045L48.8823 51.2329L51.3099 53.6638C46.9484 57.4619 41.3583 59.5506 35.5749 59.5433Z" fill="#1B1B1F"/><path d="M57.551 55.0737C56.7843 55.9232 55.9729 56.7313 55.1201 57.4944L56.9763 59.3438C52.4801 63.3892 46.9312 66.08 40.9706 67.1054C35.01 68.1308 28.8809 67.449 23.2913 65.1386C17.7018 62.8283 12.88 58.9837 9.38289 54.049C5.88578 49.1144 3.85611 43.291 3.52835 37.2517C3.2006 31.2125 4.58813 25.2037 7.53066 19.9195C10.4732 14.6354 14.8506 10.2916 20.1573 7.38988C25.464 4.48818 31.4833 3.14701 37.5199 3.52133C43.5564 3.89564 49.364 5.97015 54.2715 9.5052C55.2103 10.1775 56.1131 10.8987 56.9763 11.6656L53.717 14.9249C52.8534 14.1597 51.9408 13.4516 50.9852 12.805C47.25 10.2594 42.9437 8.67618 38.4492 8.19613C33.9546 7.71609 29.411 8.35408 25.2225 10.0534C21.0339 11.7527 17.3302 14.4607 14.4405 17.9365C11.5509 21.4124 9.56486 25.5484 8.65909 29.9769C8.43024 31.1098 8.27216 32.2559 8.18576 33.4085H19.6844C19.8339 32.2361 20.1175 31.0846 20.5296 29.9769C21.3023 27.8702 22.51 25.9499 24.0741 24.3409C25.6381 22.7319 27.5234 21.4703 29.6074 20.6382C31.6913 19.8061 33.9271 19.4222 36.1692 19.5114C38.4113 19.6006 40.6095 20.1609 42.6207 21.156C44.7124 22.1818 46.5533 23.6546 48.0134 25.4701L50.451 23.0358L51.2726 22.2108L53.7103 19.7765L56.131 17.3524L59.3903 14.0932L61.811 11.6724C61.0447 10.8215 60.2344 10.0112 59.3835 9.24487C58.5315 8.46725 57.6491 7.74035 56.7295 7.04725C51.3342 3.02172 44.9057 0.613115 38.1936 0.102354C31.4815 -0.408407 24.7625 0.999736 18.8203 4.16254C12.8781 7.32534 7.9576 12.1124 4.6327 17.9655C1.30781 23.8185 -0.28443 30.4963 0.0416964 37.2199C0.367823 43.9435 2.59887 50.4358 6.47462 55.9396C10.3504 61.4434 15.7111 65.7318 21.9315 68.3046C28.1519 70.8775 34.9756 71.6288 41.6068 70.4708C48.238 69.3128 54.4032 66.2934 59.3835 61.7646C60.236 61.0023 61.0463 60.1941 61.811 59.3438L59.3903 56.923L57.551 55.0737ZM48.0336 20.6049C44.5335 17.6917 40.1286 16.0875 35.5748 16.0676C31.3865 16.0713 27.3112 17.4266 23.9548 19.932C20.5985 22.4374 18.1403 25.9591 16.9458 29.9735H12.1787C13.0579 26.2355 14.8211 22.7631 17.3202 19.8476C19.8193 16.9321 22.9814 14.6587 26.541 13.2183C30.1005 11.7778 33.9537 11.2123 37.7771 11.5693C41.6004 11.9263 45.2823 13.1953 48.5137 15.2697C49.4896 15.8916 50.4185 16.5843 51.2929 17.3422L48.0336 20.6049Z" fill="#1B1B1F"/></svg>
